<svg id="Layer_1" data-name="Layer 1" xmlns="http://www.w3.org/2000/svg" xmlns:xlink="http://www.w3.org/1999/xlink" viewBox="0 0 319.77 217.93"><defs><radialGradient id="radial-gradient" cx="182.71" cy="696.39" r="205.16" gradientTransform="translate(856.28 -73.75) rotate(90)" gradientUnits="userSpaceOnUse"><stop offset="0" stop-color="#429500"/><stop offset="0.58" stop-color="#258900"/><stop offset="0.98" stop-color="#247d00"/></radialGradient></defs><rect width="319.77" height="217.93" style="fill:url(#radial-gradient)"/><path d="M10.79,211V7.33H309V211ZM12.22,8.75V209.57H307.55V8.75Z" style="fill:#fff"/><rect x="159.41" y="7.79" width="1.42" height="202.74" style="fill:#fff"/><path d="M249.62,169.52V48.8H309V169.52ZM251,50.23V168.1h56.51V50.23Z" style="fill:#fff"/><path d="M10.79,169.52V48.8H70.15V169.52ZM12.22,50.23V168.1H68.73V50.23Z" style="fill:#fff"/><path d="M11.5,18V16.62a8.79,8.79,0,0,0,8.78-8.78h1.43A10.21,10.21,0,0,1,11.5,18Z" style="fill:#fff"/><path d="M11.5,201.12V199.7a10.22,10.22,0,0,1,10.21,10.2H20.28A8.79,8.79,0,0,0,11.5,201.12Z" style="fill:#fff"/><path d="M298.06,7.84h1.43a8.79,8.79,0,0,0,8.78,8.78V18A10.21,10.21,0,0,1,298.06,7.84Z" style="fill:#fff"/><path d="M298.06,209.9a10.22,10.22,0,0,1,10.21-10.2v1.42a8.79,8.79,0,0,0-8.78,8.78Z" style="fill:#fff"/><path d="M126.89,109.16a32.52,32.52,0,1,1,32.52,32.53A32.56,32.56,0,0,1,126.89,109.16Zm63.62,0a31.1,31.1,0,1,0-31.1,31.1A31.13,31.13,0,0,0,190.51,109.16Z" style="fill:#fff"/><path d="M10.79,148.33V70h27v78.34Zm1.43-76.91v75.49h24.1V71.42Z" style="fill:#fff"/><path d="M282,148.33V70h27v78.34Zm1.43-76.91v75.49h24.1V71.42Z" style="fill:#fff"/><path d="M5.7,138.18v-58h6.52v58ZM7.12,81.56v55.2h3.67V81.56Z" style="fill:#fff"/><path d="M307.55,138.18v-58h6.52v58ZM309,81.56v55.2h3.67V81.56Z" style="fill:#fff"/></svg>