<svg width="85" height="84" viewBox="0 0 85 84" fill="none" xmlns="http://www.w3.org/2000/svg">
<path d="M43.3559 33.382C43.3559 33.8755 42.9756 34.2509 42.5002 34.2509C42.025 34.2509 41.6207 33.8757 41.6207 33.382V31.5975V31.5738V28.1455V28.1221V1.84554C41.6207 1.37626 42.0248 1 42.5002 1C42.9756 1 43.3559 1.37605 43.3559 1.84554V28.1221V28.1455V31.5738V31.5975V33.382ZM50.2724 30.4235C50.0347 30.8224 49.4878 30.9635 49.0841 30.7285C48.6558 30.494 48.5132 29.9775 48.7513 29.5546L62.0618 6.80047C62.2995 6.40121 62.8221 6.26011 63.2501 6.49507C63.6542 6.73002 63.7971 7.24654 63.5592 7.6458L50.2724 30.4235ZM47.0163 32.5601C47.2539 32.1612 47.7767 32.0201 48.181 32.2551C48.6084 32.4898 48.7515 33.0066 48.5134 33.429L47.6102 34.979C47.3489 35.3782 46.8258 35.5189 46.4219 35.2844C45.9937 35.0492 45.8511 34.5327 46.0891 34.11L47.0163 32.5601ZM54.218 49.6788C53.8138 49.4437 53.6715 48.9037 53.9089 48.5045C54.1467 48.1052 54.6695 47.9646 55.0736 48.1991L78.1055 61.3255C78.5333 61.5605 78.6759 62.077 78.4383 62.4999C78.2002 62.8992 77.6776 63.0398 77.2496 62.8053L54.218 49.6788ZM52.0313 46.4616C52.4591 46.6968 52.6015 47.2131 52.3641 47.636C52.1263 48.0352 51.5795 48.1759 51.1754 47.9414L49.6069 47.049C49.1789 46.8138 49.0361 46.2741 49.2739 45.8746C49.5352 45.452 50.0582 45.3111 50.4626 45.5458L52.0313 46.4616ZM34.7276 53.5765C34.9655 53.1776 35.4883 53.0365 35.9163 53.2715C36.3205 53.506 36.4629 54.023 36.225 54.4218L22.9388 77.1993C22.7008 77.5986 22.1542 77.7397 21.7501 77.5047C21.3221 77.2696 21.1797 76.7533 21.4171 76.3304L34.7276 53.5765ZM37.9837 51.4402C37.7463 51.839 37.1998 51.9801 36.7957 51.7451C36.3915 51.5104 36.2491 50.97 36.4865 50.5712L37.3896 49.0212C37.6276 48.5983 38.1505 48.4577 38.5783 48.7158C38.9824 48.9508 39.1248 49.4673 38.887 49.8666L37.9837 51.4402ZM30.7583 34.3212C31.1861 34.5561 31.329 35.0726 31.0911 35.4955C30.8533 35.8948 30.3305 36.0354 29.9027 35.8009L6.87063 22.6742C6.46692 22.4397 6.3241 21.8994 6.56193 21.5001C6.79932 21.0772 7.32215 20.9366 7.72628 21.1711L30.7583 34.3212ZM32.945 37.5384C32.5409 37.3034 32.3985 36.7869 32.6359 36.364C32.8737 35.9648 33.3966 35.8241 33.8244 36.0586L35.3933 36.951C35.7974 37.186 35.9398 37.7261 35.702 38.1254C35.4644 38.5246 34.9416 38.6653 34.5137 38.4308L32.945 37.5384ZM55.0738 35.8009C54.6697 36.0354 54.1469 35.8948 53.9091 35.4955C53.6715 35.0728 53.8141 34.5561 54.2182 34.3212L77.25 21.1711C77.6778 20.9366 78.2007 21.0772 78.4387 21.5001C78.6761 21.8994 78.5337 22.4397 78.1059 22.6742L55.0738 35.8009ZM51.1756 36.0589C51.5797 35.8243 52.1263 35.965 52.3643 36.3643C52.6017 36.7871 52.4593 37.3037 52.0315 37.5386L50.463 38.431C50.0589 38.6657 49.5119 38.5248 49.2743 38.1256C49.0365 37.7029 49.1793 37.1864 49.6073 36.9512L51.1756 36.0589ZM48.7515 54.422C48.5137 54.023 48.6561 53.5062 49.0843 53.2717C49.488 53.0365 50.0349 53.1778 50.2726 53.5767L63.5592 76.3308C63.7971 76.7535 63.6542 77.27 63.2501 77.5051C62.8223 77.7403 62.2995 77.599 62.0618 77.1997L48.7515 54.422ZM48.5134 50.5712C48.7513 50.9934 48.6084 51.5104 48.181 51.7451C47.7767 51.9801 47.2537 51.839 47.0163 51.4167L46.0893 49.8668C45.8515 49.4675 45.9939 48.951 46.4221 48.716C46.8258 48.4813 47.3728 48.622 47.6104 49.0214L48.5134 50.5712ZM29.9027 48.1993C30.3305 47.9648 30.8533 48.1054 31.0911 48.5047C31.329 48.904 31.1861 49.4439 30.7583 49.679L7.72649 62.8055C7.32236 63.04 6.79954 62.8994 6.56214 62.5001C6.32432 62.0772 6.46714 61.5607 6.87084 61.3258L29.9027 48.1993ZM33.8007 47.9411C33.3966 48.1757 32.8737 48.035 32.6359 47.6123C32.3985 47.2131 32.5409 46.6966 32.945 46.4616L34.5139 45.5458C34.9418 45.3111 35.4646 45.452 35.7022 45.8746C35.94 46.2739 35.7976 46.8138 35.3935 47.049L33.8007 47.9411ZM36.225 29.5546C36.4629 29.9772 36.3205 30.494 35.9163 30.7285C35.4885 30.9635 34.9655 30.8224 34.7276 30.4235L21.4173 7.6458C21.1799 7.24654 21.3223 6.73002 21.7503 6.49507C22.1544 6.26011 22.701 6.40121 22.939 6.80047L36.225 29.5546ZM36.4865 33.4288C36.2489 33.0066 36.3915 32.4896 36.7957 32.2549C37.2235 32.0199 37.7463 32.161 37.9837 32.5599L38.887 34.1098C39.1248 34.5325 38.9824 35.049 38.5783 35.2842C38.1505 35.5187 37.6276 35.378 37.3896 34.9788L36.4865 33.4288ZM72.4011 50.8057C71.9496 50.6885 71.6642 50.219 71.807 49.7493C71.9257 49.3032 72.4011 49.0212 72.8527 49.1385L81.98 51.5574C82.4315 51.6747 82.7165 52.1444 82.5739 52.6141C82.4552 53.0602 81.98 53.3421 81.5283 53.2249L72.4011 50.8057ZM69.6679 48.293C70.1431 48.4343 70.4048 48.9037 70.2857 49.35C70.167 49.8195 69.6916 50.0777 69.2164 49.9604L67.6949 49.5612C67.2433 49.4439 66.9583 48.9742 67.1007 48.5047C67.2194 48.0586 67.6949 47.7766 68.1464 47.8943L69.6679 48.293ZM49.7258 71.9865C49.6071 71.5408 49.8921 71.0707 50.3437 70.9534C50.8191 70.8127 51.2943 71.0941 51.4136 71.5408L53.8617 80.5577C53.9804 81.0037 53.6954 81.4734 53.2438 81.5907C52.7684 81.7318 52.293 81.45 52.1739 81.0037L49.7258 71.9865ZM50.5578 68.4172C50.6765 68.8633 50.415 69.333 49.9395 69.4507C49.4878 69.5679 49.0126 69.3096 48.87 68.8399L48.4658 67.3371C48.3471 66.8911 48.6321 66.4214 49.0841 66.3041C49.5591 66.1864 50.0347 66.4448 50.1534 66.9145L50.5578 68.4172ZM19.8249 63.1807C20.1575 62.8523 20.7045 62.8523 21.0369 63.1807C21.3936 63.5329 21.3936 64.0731 21.0369 64.4019L14.3817 71.0002C14.0252 71.329 13.4786 71.329 13.1456 71.0002C12.8132 70.648 12.8132 70.1079 13.1456 69.7791L19.8249 63.1807ZM23.3664 62.1009C23.0336 62.4297 22.4868 62.4297 22.154 62.1009C21.8212 61.7718 21.7975 61.2319 22.154 60.8797L23.2473 59.7998C23.6038 59.4474 24.1505 59.4474 24.4834 59.7762C24.8162 60.1282 24.8162 60.6686 24.4834 60.9969L23.3664 62.1009ZM12.5754 33.1943C13.0508 33.3115 13.3123 33.7812 13.1936 34.2273C13.0745 34.697 12.5991 34.979 12.1238 34.8381L3.02042 32.4428C2.54499 32.3021 2.28347 31.8324 2.40217 31.3863C2.52129 30.9166 2.99672 30.6581 3.47194 30.7755L12.5754 33.1943ZM15.3086 35.6834C14.8571 35.5657 14.5721 35.0961 14.6908 34.65C14.8095 34.1803 15.3086 33.8989 15.7601 34.0396L17.2816 34.4388C17.7332 34.5561 18.0186 35.0258 17.8995 35.4953C17.7808 35.9414 17.3053 36.2234 16.8301 36.0823L15.3086 35.6834ZM35.2505 11.9901C35.3698 12.4598 35.1081 12.9293 34.6326 13.0466C34.1811 13.1641 33.7057 12.9059 33.587 12.4362L31.1385 3.44234C31.0196 2.97286 31.2809 2.50316 31.7564 2.38589C32.2083 2.26841 32.6833 2.54998 32.8261 2.99627L35.2505 11.9901ZM34.4424 15.5828C34.2998 15.1365 34.5853 14.667 35.0368 14.5261C35.5122 14.4084 35.9876 14.6904 36.1061 15.1365L36.5102 16.6392C36.6294 17.1089 36.3679 17.5784 35.8924 17.6961C35.4409 17.8134 34.9655 17.555 34.8463 17.0853L34.4424 15.5828ZM21.0369 19.5981C21.3936 19.9269 21.3936 20.4671 21.0369 20.7959C20.7045 21.1479 20.1575 21.1479 19.8249 20.7959L13.1456 14.2209C12.8132 13.8921 12.8132 13.3286 13.1456 12.9998C13.4786 12.671 14.0252 12.671 14.3817 12.9998L21.0369 19.5981ZM22.1542 23.1205C21.7977 22.7683 21.7977 22.2282 22.1542 21.8994C22.4871 21.571 23.0338 21.571 23.3666 21.8994L24.4836 23.0033C24.8164 23.3321 24.8164 23.872 24.4836 24.201C24.1507 24.5294 23.604 24.5294 23.2712 24.201L22.1542 23.1205ZM12.1236 49.1385C12.5991 49.0212 13.0743 49.3032 13.1934 49.7493C13.3121 50.219 13.0506 50.6885 12.5752 50.8057L3.47194 53.2247C2.99672 53.3419 2.52129 53.06 2.40217 52.6139C2.28347 52.1442 2.54499 51.6745 3.02042 51.5572L12.1236 49.1385ZM15.7601 49.9604C15.3086 50.0777 14.8095 49.8195 14.6908 49.35C14.5721 48.9037 14.8571 48.4343 15.3086 48.293L16.8301 47.8941C17.3056 47.7764 17.7808 48.0584 17.8995 48.5045C18.0186 48.9742 17.7332 49.4437 17.2816 49.5609L15.7601 49.9604ZM33.587 71.5408C33.7057 71.0943 34.1811 70.8127 34.6326 70.9534C35.1081 71.0707 35.3698 71.5408 35.2505 71.9865L32.8263 81.0037C32.6835 81.4498 32.2085 81.7318 31.7566 81.5907C31.2811 81.4734 31.0198 81.0037 31.1387 80.5577L33.587 71.5408ZM36.1061 68.8401C35.9874 69.3098 35.512 69.5681 35.0368 69.4509C34.5853 69.3332 34.2998 68.8635 34.4424 68.4174L34.8466 66.9147C34.9657 66.445 35.4411 66.1866 35.8926 66.3043C36.3681 66.4216 36.6296 66.8913 36.5105 67.3373L36.1061 68.8401ZM63.9394 64.4019C63.6066 64.0731 63.6066 63.5329 63.9394 63.1807C64.2723 62.8523 64.8427 62.8523 65.1755 63.1807L71.8307 69.7791C72.1872 70.1079 72.1872 70.648 71.8307 71.0002C71.4979 71.329 70.9512 71.329 70.6183 71.0002L63.9394 64.4019ZM62.846 60.8795C63.1788 61.2085 63.1788 61.7484 62.846 62.1006C62.5134 62.4295 61.9664 62.4295 61.6103 62.1006L60.4932 60.9967C60.1601 60.6681 60.1601 60.1278 60.4932 59.7994C60.8497 59.447 61.3964 59.447 61.7292 59.7758L62.846 60.8795ZM65.1755 20.7959C64.8427 21.1479 64.2723 21.1479 63.9394 20.7959C63.6066 20.4671 63.6066 19.9269 63.9394 19.5981L70.6183 12.9998C70.9512 12.671 71.4979 12.671 71.8307 12.9998C72.1872 13.3286 72.1872 13.8921 71.8307 14.2209L65.1755 20.7959ZM61.6101 21.8994C61.9427 21.571 62.4897 21.571 62.8458 21.8994C63.1786 22.2282 63.1786 22.7683 62.8458 23.0971L61.7288 24.201C61.396 24.5294 60.8493 24.5294 60.4927 24.201C60.1597 23.872 60.1597 23.3321 60.4927 23.0033L61.6101 21.8994ZM72.8527 34.8381C72.4011 34.979 71.9257 34.697 71.807 34.2273C71.6642 33.7812 71.9494 33.3115 72.4011 33.1943L81.5285 30.7753C81.9802 30.6579 82.4554 30.9164 82.5741 31.3861C82.7167 31.8322 82.4317 32.3019 81.9802 32.4426L72.8527 34.8381ZM69.2162 34.0396C69.6916 33.8989 70.167 34.1803 70.2855 34.6266C70.4046 35.0963 70.1431 35.566 69.6677 35.6834L68.1462 36.0823C67.6946 36.2234 67.2192 35.9416 67.1005 35.4953C66.9581 35.0256 67.2429 34.5559 67.6946 34.4388L69.2162 34.0396ZM51.4136 12.4362C51.2943 12.9059 50.8191 13.1641 50.3437 13.0466C49.8921 12.9293 49.6071 12.4598 49.7258 11.9901L52.1736 2.99627C52.2928 2.54998 52.7682 2.26841 53.2436 2.38589C53.6952 2.50316 53.9802 2.97286 53.8615 3.44234L51.4136 12.4362ZM48.87 15.1365C48.9889 14.6904 49.4878 14.4084 49.9395 14.5261C50.391 14.667 50.6765 15.1365 50.5578 15.5828L50.1537 17.0855C50.035 17.5552 49.5591 17.8136 49.0843 17.6963C48.6324 17.5786 48.3473 17.1089 48.466 16.6395L48.87 15.1365ZM33.777 41.1311C34.2524 41.1311 34.6563 41.5303 34.6563 42C34.6563 42.4697 34.2522 42.8453 33.777 42.8453H1.85565C1.38022 42.8453 1 42.4697 1 42C1 41.5303 1.38043 41.1311 1.85565 41.1311H33.777ZM41.6207 50.5946C41.6207 50.1249 42.0248 49.7493 42.5002 49.7493C42.9756 49.7493 43.3559 50.1249 43.3559 50.5946V82.1311C43.3559 82.6242 42.9756 83 42.5002 83C42.025 83 41.6207 82.6244 41.6207 82.1311V50.5946ZM51.1993 42.8453C50.7241 42.8453 50.3437 42.4697 50.3437 42C50.3437 41.5303 50.7241 41.1311 51.1993 41.1311H83.1207C83.6198 41.1311 84 41.5303 84 42C84 42.4697 83.6198 42.8453 83.1207 42.8453H51.1993Z" fill="#A66CFF" stroke="black"/>
<path fill-rule="evenodd" clip-rule="evenodd" d="M42.9426 19.7502C55.3606 19.7502 65.4273 29.6808 65.4273 41.9308C65.4273 54.1808 55.3606 64.1114 42.9426 64.1114C30.5248 64.1114 20.4581 54.1808 20.4581 41.9308C20.4581 29.6808 30.5248 19.7502 42.9426 19.7502Z" fill="white"/>
<path fill-rule="evenodd" clip-rule="evenodd" d="M30.28 57.4585C30.0355 57.2068 29.7916 56.9422 29.5799 56.6628C29.4201 56.4517 29.3784 56.4736 29.1501 56.3544C28.5697 56.0522 28.0002 55.7202 27.4567 55.3575C27.2196 55.1993 26.9846 55.0331 26.7561 54.8585C28.0378 56.2449 29.4923 57.4956 31.0931 58.4936L31.9242 58.9851L31.4018 58.5289C31.2745 58.4174 31.1413 58.3041 31.0194 58.187C30.7696 57.947 30.5206 57.7067 30.28 57.4585ZM44.9885 61.0851C44.2707 61.2451 43.5526 61.4037 42.8321 61.5514C42.392 61.6417 41.9507 61.7287 41.5078 61.8055C41.4004 61.8239 41.2909 61.8429 41.1805 61.8607L42.6525 61.9427L44.7271 61.856C45.0066 61.8326 45.2854 61.8064 45.5642 61.7769C45.7605 61.7561 45.9555 61.7258 46.1512 61.7009L46.1476 61.6951C46.0799 61.5862 46.0073 61.4796 45.9336 61.3742C45.859 61.2673 45.7821 61.1616 45.7036 61.0577C45.6761 61.0215 45.6456 60.9803 45.6148 60.9417C45.4059 60.9742 45.1924 61.0396 44.9885 61.0851ZM29.8167 39.7095C29.7048 39.909 29.5956 40.111 29.4899 40.3154C28.9651 41.3281 28.5217 42.3776 28.1047 43.4372C28.0946 43.4629 28.0609 43.5409 28.0585 43.5669C28.0612 43.5993 28.0916 43.6851 28.1008 43.7202C28.2497 44.2896 28.3953 44.8628 28.575 45.4234C28.8056 46.142 29.096 46.8151 29.4334 47.4911C29.9659 48.558 30.6375 49.5593 31.4003 50.4791C31.6052 50.7261 31.8174 50.9705 32.0323 51.2091C32.1685 51.3606 32.3073 51.5119 32.4517 51.6559C32.5006 51.7043 32.6367 51.8416 32.6983 51.8725C32.7681 51.8953 32.8439 51.9125 32.9156 51.9289C33.0342 51.956 33.1535 51.9806 33.2731 52.0045C33.5827 52.0664 33.8935 52.1225 34.2046 52.1771C34.5208 52.2323 34.8375 52.2857 35.1542 52.3365C35.3528 52.3683 35.5538 52.4019 35.7536 52.4273C36.2716 52.4933 36.7923 52.5348 37.3109 52.5973C37.5633 52.6276 37.8191 52.6183 38.0722 52.6425C38.3205 52.6665 38.5727 52.6571 38.8222 52.6641L40.299 52.6431C40.4958 52.4428 40.6793 52.225 40.8531 52.0057C41.0872 51.7107 41.3092 51.4053 41.5241 51.0964C41.7248 50.8079 41.9205 50.515 42.112 50.2195C37.1907 47.7568 32.9685 44.1316 29.8167 39.7095ZM45.8037 57.4594C45.4526 57.1948 45.0986 56.9343 44.7443 56.6745C44.1769 56.2584 43.6047 55.8455 43.0447 55.4197C42.4391 54.9592 41.8376 54.4935 41.2409 54.0225C41.089 53.9025 40.9457 53.779 40.8004 53.652C40.7601 53.6166 40.6885 53.5503 40.6376 53.5311C40.5769 53.5083 40.4375 53.5194 40.3733 53.5226C40.0927 53.5366 39.8168 53.5486 39.5353 53.5506C38.6292 53.5568 37.7291 53.4896 36.8266 53.4245C36.1932 53.3789 35.5591 53.2989 34.9313 53.2049C34.3476 53.1176 33.7657 53.0163 33.1864 52.9044C32.9147 52.8522 32.6403 52.7713 32.3656 52.7333C32.1803 52.9269 32.0048 53.1599 31.8476 53.3699C31.5992 53.7016 31.3613 54.0424 31.1271 54.3843C30.7619 54.9172 30.4093 55.4577 30.0494 55.9935C30.0692 56.0221 30.0905 56.0499 30.1077 56.0729C30.1776 56.1649 30.2527 56.254 30.3285 56.3413C30.5307 56.5749 30.7429 56.8021 30.9563 57.026C31.2893 57.3755 31.6327 57.7292 31.9826 58.0623C33.3409 59.3547 34.5906 60.4734 36.4412 61.0107C36.8148 61.119 37.1901 61.2206 37.5681 61.3111C37.7999 61.3663 38.0361 61.425 38.2708 61.4662C38.4058 61.4901 38.5404 61.5068 38.6778 61.5001C38.8134 61.4936 38.9486 61.4659 39.0809 61.4367C39.3071 61.3868 39.532 61.3316 39.7585 61.2819C40.1169 61.2034 40.4766 61.1295 40.8356 61.0539C41.4146 60.9321 41.9933 60.8101 42.5717 60.6862C43.1912 60.554 43.8113 60.4202 44.4291 60.2795C44.6496 60.2293 44.8701 60.1785 45.0894 60.1236C45.1851 60.0996 45.3206 60.0701 45.4109 60.033C45.5112 59.9916 45.7167 59.6742 45.7753 59.5801C45.8883 59.3988 45.9878 59.2131 46.0923 59.0274C46.208 58.8215 46.4916 58.3254 46.5638 58.0498C46.3158 57.8468 46.0594 57.6518 45.8037 57.4594ZM55.7144 53.8625C53.7057 55.7167 51.0609 57.3373 48.4029 58.0431C48.0749 58.1304 47.7437 58.1955 47.4127 58.2679L46.3152 60.3642L47.2047 61.5243C47.4373 61.4577 47.6862 61.425 47.9204 61.3722C49.9364 60.916 51.8205 60.1639 53.6341 59.1854C55.9384 57.9423 58.0042 56.169 59.7092 54.1965L59.5588 54.2132C59.4594 54.2243 59.3596 54.2354 59.2598 54.2447C59.1835 54.2517 59.1021 54.2596 59.0251 54.2584C58.6507 54.2535 58.2816 54.2841 57.9062 54.2567C57.4981 54.2269 57.084 54.1781 56.6808 54.1081C56.3703 54.054 56.016 53.9808 55.7144 53.8625ZM24.6542 28.4348C24.5977 28.5157 24.5423 28.5969 24.4878 28.6784C24.5476 28.6156 24.6077 28.5528 24.6681 28.4903L24.6542 28.4348ZM24.8972 29.3739C24.8543 29.4171 24.8114 29.4604 24.7684 29.5039C24.2916 29.9892 23.8292 30.4961 23.4036 31.0255C23.2355 31.2348 23.0617 31.4538 22.9368 31.6918C22.8817 31.7966 22.835 31.9056 22.7906 32.0151C22.7258 32.1739 22.6642 32.3342 22.6005 32.4934C21.9301 34.1715 21.4867 35.9252 21.2594 37.7146C21.2324 37.9275 21.1753 38.2174 21.2008 38.4268C21.2378 38.7276 21.302 39.0318 21.373 39.3262C21.4604 39.6879 21.5628 40.0474 21.6776 40.4013C21.7788 40.7137 21.8904 41.0241 22.0165 41.3275C22.1243 41.5865 22.2442 41.8484 22.3859 42.0914C22.4392 42.1825 22.9045 42.28 23.0141 42.306C23.5137 42.4243 24.024 42.49 24.5311 42.5674C25.0408 42.645 25.5528 42.7023 26.059 42.777L27.4481 42.9499L28.2527 41.2136L28.2539 41.2107C28.5658 40.5975 28.8814 39.9855 29.2156 39.3837C29.2706 39.2844 29.3263 39.1851 29.3825 39.0864C27.388 36.1474 25.8589 32.8759 24.8972 29.3739ZM22.4463 44.2639C22.4617 43.9497 21.6752 43.3318 21.7046 43.0185C21.7105 42.9537 21.7229 42.8894 21.7365 42.8258C21.7528 42.7493 21.7794 42.6538 21.7854 42.5744C21.7679 42.5098 21.717 42.4059 21.6909 42.3484C21.6261 42.205 21.5577 42.0631 21.4891 41.9214L21.2816 41.4972C21.2384 41.4084 21.1916 41.317 21.1525 41.2265C21.1312 41.1774 21.1114 41.1272 21.0924 41.077L21.0948 41.1228C21.1179 41.5439 20.5433 43.4448 20.5735 43.8656C20.6105 44.3807 21.6616 47.3883 21.7294 47.9004C21.7635 48.158 22.38 47.1929 22.4309 47.4481C22.4961 47.776 22.9066 47.0814 22.9845 47.4067C22.962 47.1544 22.8578 45.9145 22.8409 45.6617C22.8317 45.5256 22.6378 45.3665 22.6408 45.2301C22.6446 45.0488 22.4377 44.4446 22.4463 44.2639Z" fill="#A66CFF"/>
<path fill-rule="evenodd" clip-rule="evenodd" d="M46.0201 45.9396C46.8237 46.2384 47.7949 46.2264 48.6423 46.3292C48.7705 46.3447 48.8998 46.3394 49.0286 46.3534L54.7461 46.467C54.832 46.4609 54.9726 46.2973 55.0327 46.241C56.1613 45.1854 57.1029 43.9666 57.7899 42.5878C58.1635 41.8379 58.4559 41.0524 58.6661 40.243C58.7235 40.0214 58.8046 39.7501 58.8126 39.5212C58.82 39.2966 58.7617 39.0268 58.7229 38.8061C58.2093 35.8849 56.497 33.5113 54.61 31.2821C54.311 30.9291 54.4084 30.9945 53.978 30.8462C53.2845 30.6073 52.6203 30.4391 51.8927 30.3398C51.3262 30.2625 50.7531 30.2172 50.1845 30.1509C49.6268 30.0858 49.0271 30.1019 48.4662 30.1232C47.9029 30.1445 47.3396 30.183 46.7763 30.1968C46.7405 30.1976 46.7062 30.2044 46.6727 30.2178C46.5523 30.2657 46.4507 30.398 46.38 30.5004C46.2575 30.6774 46.1536 30.8698 46.0366 31.0514C45.3866 32.0621 44.7727 33.1025 44.1683 34.1402C43.5923 35.1292 43.0257 36.1232 42.4583 37.1169C42.3138 37.3694 42.1632 37.6179 42.0193 37.8708C42.0048 37.8962 41.9903 37.9263 41.9888 37.9558C41.9868 38.0016 42.0143 38.0697 42.0312 38.1114C42.0809 38.2349 42.1357 38.3549 42.1839 38.4793C42.381 38.9895 42.6022 39.4926 42.8316 39.9893C43.0882 40.5444 43.3581 41.0942 43.6355 41.6397C44.1301 42.6129 44.6493 43.5765 45.1877 44.527C45.3268 44.7728 45.4547 45.0274 45.5926 45.2745C45.6589 45.3939 45.9162 45.8544 46.0201 45.9396ZM54.4715 30.2076C54.5901 30.0312 54.7017 29.8487 54.8104 29.6671C54.972 29.3967 55.128 29.1228 55.2816 28.8477C55.5379 28.3884 55.7869 27.9253 56.0361 27.4622C56.2028 27.1527 56.3993 26.8554 56.5588 26.5424C56.5121 26.4081 56.4114 26.2372 56.3478 26.1289C56.2087 25.8927 56.0551 25.662 55.9 25.4357C55.6572 25.0821 55.4036 24.7323 55.1434 24.3909C54.8471 24.0026 54.533 23.6276 54.2154 23.2562C53.9215 22.9128 53.5266 22.7499 53.135 22.5446C51.6899 21.7883 50.1312 21.1921 48.5497 20.7801C47.8014 20.585 47.0389 20.4153 46.2764 20.3094L44.5309 20.1125C44.4726 20.1052 44.4039 20.0991 44.3462 20.1149C44.2621 20.1379 44.1399 20.2241 44.0659 20.2705C43.2424 20.7874 42.4811 21.4242 41.8314 22.1428C41.7097 22.2774 41.5934 22.422 41.4797 22.5633C41.3146 22.7689 41.1532 22.9776 40.9958 23.1891C40.8223 23.4218 40.65 23.6606 40.4943 23.9056C40.4591 23.9611 40.3736 24.0975 40.3197 24.2064C41.4951 24.7124 42.6069 25.5709 43.5494 26.4069C44.276 27.0516 44.9625 27.7405 45.6314 28.4427C45.7652 28.5835 45.8928 28.7315 46.0218 28.8769C46.1574 29.0293 46.3033 29.1972 46.4564 29.3321C46.467 29.3415 46.488 29.3611 46.502 29.3695C46.5197 29.371 46.5523 29.3666 46.5677 29.3649C46.6387 29.3576 46.7097 29.3488 46.7808 29.3421C46.9403 29.3272 47.1002 29.3103 47.26 29.298C47.4098 29.2863 47.5587 29.3018 47.7073 29.2895C47.881 29.2752 48.0104 29.2597 48.188 29.2761C48.3312 29.2895 48.4863 29.286 48.6302 29.284C48.8309 29.2813 49.0316 29.2761 49.2326 29.2755C49.4812 29.2743 49.7393 29.2778 49.9862 29.3091L50.9103 29.3876C52.1209 29.5132 53.3396 29.7579 54.4715 30.2076ZM56.0038 54.245C56.6231 54.5799 58.1721 54.6815 58.8037 54.6345C59.2951 54.5983 59.774 54.5583 60.2562 54.45C60.3109 54.4377 60.5131 54.4021 60.5569 54.3741C60.6052 54.3431 60.7629 54.0987 60.7999 54.047C60.9749 53.8012 61.1418 53.5506 61.3085 53.2992C62.9966 50.7533 64.1995 47.5588 64.5905 44.5433L64.803 41.6353C64.7755 41.5699 64.6855 41.4449 64.6506 41.3958C64.544 41.2455 64.4304 41.0986 64.3164 40.9535C64.2099 40.8177 64.1018 40.6828 63.9938 40.5482C63.9183 40.4536 63.8405 40.3589 63.7682 40.262C63.7443 40.2299 63.6602 40.0991 63.633 40.0798C63.6235 40.0731 63.5968 40.0707 63.5865 40.0702C63.4666 40.062 63.3455 40.0485 63.2257 40.0468C62.9673 40.0436 62.7136 40.0001 62.4566 39.9931L62.4522 39.9928L60.2301 39.8766L60.2266 39.8763C60.0226 39.857 59.8187 39.8672 59.6136 39.859C59.6023 39.9043 59.5929 39.9501 59.5837 39.9904C59.5517 40.1341 59.5224 40.2781 59.4907 40.4217C59.4087 40.7937 59.3131 41.1663 59.1737 41.522C58.6208 42.935 57.8494 44.2493 56.8643 45.412C56.5633 45.7674 56.2451 46.1035 55.9109 46.429C55.8088 46.5283 55.7055 46.6258 55.6037 46.7251C55.5773 46.7508 55.5282 46.7967 55.4959 46.8338C55.5107 46.95 55.5634 47.0995 55.5877 47.2061C55.6652 47.5477 55.717 47.8987 55.7585 48.2462C55.8049 48.6348 55.8375 49.0255 55.8635 49.4162C55.9091 50.1056 55.9322 50.7962 55.9506 51.4868C55.9547 51.6412 55.9713 51.7948 55.9825 51.949C55.9944 52.1096 55.9719 52.2641 55.9784 52.4226C55.9911 52.7316 56.0124 53.0399 56.0228 53.3494C56.029 53.5366 56.0326 53.725 56.0272 53.9121C56.024 54.019 56.0189 54.1343 56.0038 54.245ZM40.2987 53.8832C40.4955 53.6829 40.679 53.4651 40.8528 53.2458C41.0869 52.9509 41.3089 52.6454 41.5238 52.3365C42.0223 51.6205 42.4885 50.8782 42.9399 50.1328C43.6882 48.8964 44.3941 47.6385 45.0998 46.3785C45.1327 46.3201 45.172 46.2623 45.2019 46.2027C45.207 46.1931 45.2158 46.1759 45.2209 46.1624C45.2075 46.1365 45.1756 46.0941 45.1626 46.076C45.0974 45.9855 45.032 45.8958 44.9696 45.8033C44.2586 44.7538 43.6405 43.6223 43.0796 42.4888C42.506 41.3296 41.9832 40.1426 41.4996 38.9442C41.4344 38.7833 41.3806 38.6224 41.3211 38.4598C41.3104 38.4312 41.2776 38.3386 41.2527 38.3182C41.2284 38.2986 41.1343 38.2881 41.105 38.2849C40.9298 38.2659 40.7507 38.2574 40.5746 38.2408C39.4237 38.1333 38.2681 38.0957 37.1176 37.9917L34.7922 37.8731L34.7872 37.8726C34.6513 37.858 34.5521 37.8536 34.4142 37.8568H34.4086L33.2462 37.8083C33.1068 37.8107 32.9771 37.7876 32.8427 37.7791L32.0743 37.7432H32.0722C32.0687 37.7429 32.0648 37.7432 32.061 37.7438C32.011 37.7523 31.9328 37.8425 31.9029 37.8784C31.7946 38.0078 31.6978 38.1517 31.5933 38.2852C30.7876 39.3177 30.0914 40.3943 29.4902 41.5544C28.9654 42.567 28.522 43.6165 28.105 44.6762C28.0949 44.7019 28.0612 44.7795 28.0588 44.8058C28.0614 44.8379 28.0919 44.9238 28.1011 44.9591C28.25 45.5285 28.3953 46.1017 28.5753 46.6623C28.8059 47.381 29.0963 48.054 29.4337 48.73C29.9662 49.797 30.6378 50.7979 31.4006 51.718C31.6055 51.9651 31.8177 52.2095 32.0326 52.448C32.1687 52.5996 32.3076 52.7508 32.452 52.8948C32.5009 52.9433 32.637 53.0805 32.6986 53.1115C32.7684 53.1342 32.8442 53.1515 32.9158 53.1678C33.0345 53.195 33.1538 53.2198 33.2734 53.2434C33.583 53.3053 33.8938 53.3614 34.2049 53.416C34.5211 53.4712 34.8378 53.5246 35.1545 53.5754C35.3531 53.6073 35.5541 53.6409 35.7539 53.6663C36.2719 53.7323 36.7926 53.774 37.3112 53.8362C37.5636 53.8666 37.8194 53.8572 38.0725 53.8815C38.3211 53.9054 38.5733 53.8961 38.8225 53.9031L40.2987 53.8832ZM27.4481 44.1891L28.2524 42.4529L28.2538 42.45C28.5658 41.8365 28.8811 41.2247 29.2153 40.6229C29.5728 39.9785 29.952 39.3492 30.3554 38.7316C30.5629 38.4139 30.7761 38.1003 30.9957 37.7908C31.1085 37.6317 31.2358 37.4827 31.3482 37.3236C31.3586 37.3087 31.3701 37.2938 31.3817 37.2786C31.3767 37.2661 31.3722 37.2529 31.3678 37.2395C30.9815 36.0242 30.8616 34.7923 30.7707 33.5294C30.7367 33.0601 30.7062 32.5906 30.6648 32.1216C30.6574 32.0387 30.6399 31.961 30.6369 31.8793L30.5899 30.9449C30.5757 30.7886 30.5887 30.6333 30.5766 30.478C30.5647 30.3296 30.5671 30.1792 30.5656 30.0303C30.5644 29.9039 30.5626 29.7634 30.541 29.6344C29.746 29.2667 28.8823 29.147 28.0197 29.0305C27.9507 29.0212 27.8708 29.0218 27.8013 29.022C27.6917 29.0223 27.5816 29.0261 27.4721 29.0317C27.3034 29.0402 27.1063 29.0501 26.9405 29.0813C26.6412 29.1371 26.5036 29.1403 26.2606 29.3479C25.7432 29.79 25.245 30.259 24.7684 30.7437C24.2916 31.229 23.8295 31.7359 23.4036 32.2653C23.2352 32.4747 23.0617 32.6937 22.9365 32.9316C22.8814 33.0365 22.8347 33.1454 22.7903 33.2549C22.7255 33.4137 22.6639 33.5737 22.6002 33.7332C21.9298 35.4113 21.4864 37.1653 21.2591 38.9544C21.2321 39.1673 21.175 39.4572 21.2005 39.6669C21.2375 39.9677 21.3017 40.2716 21.3727 40.5663C21.4598 40.9281 21.5625 41.2872 21.6773 41.6414C21.7786 41.9538 21.8901 42.2642 22.0162 42.5676C22.1237 42.8266 22.2436 43.0886 22.3854 43.3315C22.4386 43.4229 22.9039 43.5201 23.0135 43.5461C23.5131 43.6644 24.0234 43.7301 24.5305 43.8072C25.0402 43.8848 25.5523 43.9421 26.0581 44.0168L27.4481 44.1891ZM46.5641 59.289C46.3161 59.0864 46.0594 58.8913 45.804 58.6989C45.4529 58.4343 45.0989 58.1739 44.7446 57.914C44.1772 57.4979 43.605 57.085 43.045 56.6593C42.4394 56.1988 41.8379 55.733 41.2411 55.2617C41.0893 55.142 40.946 55.0182 40.8004 54.8912C40.7601 54.8559 40.6885 54.7896 40.6376 54.7706C40.5766 54.7478 40.4375 54.7589 40.3733 54.7621C40.0927 54.7761 39.8168 54.7881 39.5353 54.7902C38.6292 54.796 37.7294 54.7291 36.8266 54.664C36.1932 54.6182 35.5591 54.5382 34.9313 54.4444C34.3479 54.3568 33.766 54.2555 33.1864 54.1443C32.9147 54.092 32.6403 54.0108 32.3656 53.9729C32.1803 54.1665 32.0048 54.3995 31.8476 54.6094C31.5992 54.9414 31.3613 55.2819 31.1271 55.6238C30.7622 56.1567 30.4096 56.6972 30.0497 57.233C30.0695 57.2617 30.0908 57.2897 30.1083 57.3125C30.1781 57.4044 30.2533 57.4935 30.3288 57.5808C30.531 57.8147 30.7432 58.0419 30.9566 58.2656C31.2896 58.6154 31.633 58.9687 31.9829 59.3019C33.3412 60.5942 34.5909 61.7129 36.4415 62.2505C36.8148 62.3588 37.1904 62.4604 37.5687 62.5509C37.8004 62.6064 38.0366 62.6648 38.2714 62.7063C38.4064 62.7302 38.541 62.7466 38.6784 62.7402C38.8139 62.7337 38.9492 62.706 39.0815 62.6768C39.3077 62.6269 39.5326 62.5717 39.7591 62.522C40.1175 62.4435 40.4772 62.3693 40.8362 62.294C41.4152 62.1722 41.9939 62.0502 42.5723 61.9264C43.1918 61.7938 43.8119 61.6603 44.4297 61.5196C44.6502 61.4694 44.8707 61.4186 45.09 61.3634C45.1856 61.3394 45.3212 61.3102 45.4112 61.2729C45.5115 61.2314 45.717 60.914 45.7756 60.8203C45.8886 60.6389 45.9881 60.4532 46.0926 60.2675C46.2083 60.0611 46.4919 59.5647 46.5641 59.289ZM41.1316 21.4557C41.105 21.388 41.0529 21.2928 41.0283 21.2461C40.9481 21.0937 40.8617 20.9433 40.7744 20.7947C40.6903 20.6516 40.6042 20.5094 40.5156 20.3692C40.4792 20.3111 40.4414 20.2504 40.4023 20.1917L38.6156 20.4851C37.7871 20.6548 36.9681 20.8595 36.1624 21.1153C35.0263 21.4759 33.9406 21.9335 32.88 22.4719C31.5297 23.1578 30.2554 23.9903 29.0838 24.944C28.763 25.2053 28.4457 25.4745 28.1363 25.7487C27.9398 25.9228 27.7438 26.1009 27.5585 26.2866C27.4845 26.3608 27.3087 26.5363 27.2652 26.6291C27.2149 26.7366 27.1788 26.8633 27.1489 26.9778C27.1077 27.1354 27.0749 27.2963 27.0471 27.4569C27.0124 27.6561 26.9846 27.8596 26.9701 28.0614C26.9665 28.1098 26.9606 28.1933 26.9609 28.2704C27.0696 28.2602 27.1779 28.2462 27.2865 28.2348C28.5484 28.1031 29.6664 28.4591 30.8122 28.9239C30.8965 28.8501 30.9806 28.7665 31.0584 28.6927C31.2289 28.5306 31.3988 28.3677 31.5708 28.2068C31.7526 28.0368 31.9376 27.8663 32.1303 27.7078C33.5318 26.5541 35.1273 25.634 36.8109 24.9434C37.3561 24.72 37.91 24.5212 38.4727 24.3445C38.6437 24.2908 38.8154 24.2394 38.9874 24.188C39.046 24.1705 39.1387 24.1474 39.1984 24.1223C39.234 24.0852 39.2739 24.0306 39.3038 23.9929C39.3846 23.8901 39.4634 23.7856 39.5418 23.6811C39.762 23.3867 39.9787 23.0895 40.1939 22.7916C40.4106 22.4912 40.6264 22.1898 40.8383 21.8861C40.9135 21.7787 40.9881 21.6712 41.0612 21.5626C41.0816 21.5305 41.1088 21.4925 41.1316 21.4557ZM59.7092 55.4358C59.6589 55.441 59.6088 55.4466 59.5588 55.4524C59.4594 55.4635 59.3596 55.4746 59.2598 55.484C59.1835 55.491 59.1021 55.4989 59.0254 55.4977C58.6507 55.4927 58.2816 55.5234 57.9062 55.4959C57.4981 55.4661 57.0837 55.4174 56.6808 55.3473C56.37 55.2933 56.016 55.22 55.7141 55.1017C53.7054 56.9559 51.0606 58.5762 48.4026 59.2823C48.0746 59.3696 47.7434 59.4347 47.4124 59.5071L46.3149 61.6034L47.2044 62.7635C47.437 62.6967 47.686 62.6639 47.9201 62.6111C49.9361 62.155 51.8202 61.4028 53.6338 60.4246C55.9384 59.1816 58.0042 57.4082 59.7092 55.4358ZM31.924 60.2243C31.7496 60.0724 31.5753 59.9206 31.4015 59.7682C31.2739 59.6566 31.141 59.5433 31.0191 59.4263C30.7696 59.1865 30.5209 58.9462 30.28 58.698C30.0355 58.446 29.7916 58.1817 29.5799 57.9023C29.4201 57.6912 29.3784 57.7131 29.1501 57.594C28.5697 57.2917 28.0002 56.9597 27.4567 56.5971C27.2196 56.4388 26.9843 56.2727 26.7561 56.0977C28.0378 57.4845 29.4923 58.7348 31.0928 59.7329L31.924 60.2243ZM46.1512 62.9402C46.15 62.9381 46.1488 62.9364 46.1476 62.9346C46.0799 62.8257 46.0073 62.7188 45.9336 62.6137C45.859 62.5069 45.7824 62.4011 45.7036 62.2972C45.6761 62.2607 45.6456 62.2195 45.6148 62.181C45.4062 62.2134 45.1927 62.2788 44.9891 62.3244C44.2713 62.4844 43.5532 62.6429 42.8327 62.7907C42.3926 62.8809 41.951 62.9679 41.5084 63.0447C41.401 63.0634 41.2915 63.0821 41.1811 63.0999L42.6531 63.182L44.7277 63.0952C45.0071 63.0716 45.286 63.0453 45.5648 63.0161C45.7605 62.9957 45.9552 62.9653 46.1512 62.9402ZM21.6809 46.9196C21.6584 46.6673 21.6436 46.4141 21.6267 46.1613C21.6175 46.0252 21.6202 45.8836 21.6229 45.7472C21.6264 45.5662 21.6338 45.3848 21.6427 45.2038C21.6581 44.8899 21.6755 44.571 21.7046 44.258C21.7105 44.1935 21.7229 44.129 21.7365 44.0653C21.7528 43.9888 21.7794 43.8933 21.7854 43.8136C21.7679 43.7491 21.717 43.6454 21.6909 43.5879C21.6261 43.4445 21.5577 43.3026 21.4894 43.161C21.4207 43.0194 21.3511 42.878 21.2819 42.7367C21.2386 42.6479 21.1919 42.5565 21.1528 42.466C21.1315 42.417 21.1117 42.3667 21.0927 42.3165C21.0936 42.3317 21.0942 42.3472 21.0951 42.3624C21.1182 42.7834 21.138 43.2054 21.1682 43.6261C21.2052 44.1412 21.2623 44.6516 21.3301 45.1638C21.3642 45.4216 21.4157 45.6841 21.4663 45.9391C21.5317 46.267 21.603 46.594 21.6809 46.9196ZM58.965 26.9576C58.4846 26.4451 57.9782 25.9546 57.4498 25.4926C57.1269 25.2103 56.7974 24.9326 56.4644 24.6619C56.3682 24.5839 56.2714 24.5057 56.1732 24.4286C56.2217 24.489 56.2702 24.5495 56.3182 24.6102C56.3848 24.694 56.4538 24.7805 56.5139 24.8689C56.7202 25.1726 56.9117 25.4789 57.1032 25.7916C57.184 25.9233 57.2778 26.0851 57.3906 26.1923C57.5131 26.3088 57.697 26.3926 57.8497 26.4627C58.2191 26.632 58.5941 26.7903 58.965 26.9576ZM26.1913 27.7177C26.1475 27.7676 26.104 27.8173 26.0611 27.8672C25.8346 28.1294 25.6159 28.3986 25.4025 28.6711C25.0881 29.0726 24.7729 29.4916 24.4878 29.9179C24.6154 29.7842 24.7436 29.651 24.8735 29.5196C25.0716 29.3193 25.2734 29.1216 25.4833 28.9336C25.6594 28.7762 25.8497 28.6159 26.0495 28.4886C26.0566 28.4839 26.0649 28.4789 26.0735 28.474C26.0741 28.4521 26.0738 28.429 26.0747 28.4097C26.0785 28.3212 26.0883 28.2331 26.1013 28.1455C26.1212 28.0108 26.1525 27.8759 26.1851 27.7437C26.1869 27.7349 26.1892 27.7264 26.1913 27.7177ZM42.8517 20.0544C42.7339 20.0556 42.6158 20.0582 42.498 20.0609C42.3153 20.0652 42.1324 20.0711 41.9501 20.079C41.84 20.0836 41.723 20.0868 41.6138 20.0988C41.5123 20.1099 41.4111 20.112 41.3104 20.1181C41.4824 20.371 41.6333 20.6308 41.7938 20.891C42.0104 20.6919 42.2292 20.4962 42.4627 20.3152C42.5237 20.2679 42.5868 20.2235 42.651 20.1809C42.7158 20.1377 42.7833 20.0959 42.8517 20.0544ZM64.6352 38.7719C64.6263 38.8038 64.6183 38.8335 64.6106 38.8607C64.55 39.0814 64.4999 39.3054 64.439 39.5256C64.4298 39.5592 64.3907 39.6757 64.3892 39.7092C64.3955 39.7285 64.425 39.7714 64.4354 39.7872C64.4905 39.871 64.547 39.9536 64.6009 40.038C64.6583 40.128 64.7181 40.2235 64.7817 40.3172C64.7613 39.8818 64.6997 39.2356 64.6352 38.7719ZM25.7245 26.6306L25.7355 26.6043L27.579 24.7857L27.6032 24.7732C27.6547 24.7469 27.7361 24.6768 27.782 24.6394C27.8865 24.5544 27.9892 24.4666 28.091 24.3784C28.2479 24.2432 28.4063 24.0989 28.5688 23.971C28.8988 23.7114 29.2333 23.4565 29.5773 23.215C32.6391 21.0645 35.883 19.8083 39.5856 19.2316C39.7543 19.2053 39.9263 19.186 40.0956 19.1668C40.3434 19.1384 40.5911 19.1127 40.8392 19.0885C41.0846 19.0646 41.3299 19.0427 41.5759 19.0246C41.7467 19.012 41.9282 18.9977 42.0992 19.0003H42.1037L45.5956 19.1416L45.6015 19.1422C46.7009 19.2608 47.8091 19.4795 48.8777 19.7583C49.7973 19.9981 50.7155 20.2904 51.5937 20.6516C53.0471 21.2493 54.4404 21.9702 55.7493 22.8343C57.1378 23.7509 58.41 24.8143 59.5597 26.0098C60.4027 26.8864 61.1779 27.8202 61.8697 28.8176C62.5123 29.7439 63.0756 30.7159 63.5693 31.7268C63.9026 32.4095 64.2033 33.1068 64.4789 33.8141C64.7687 34.5569 64.9996 35.3272 65.1893 36.101C65.3936 36.9347 65.551 37.7815 65.6659 38.6315C65.7787 39.4666 65.8512 40.3099 65.8749 41.1523C65.8971 41.9369 65.8778 42.7291 65.794 43.5102C65.7047 44.3421 65.6022 45.1729 65.4498 45.9963C65.237 47.1459 64.9265 48.2432 64.5097 49.3374C64.0962 50.4233 63.6247 51.4801 63.0581 52.4974C62.1313 54.1612 60.9894 55.637 59.7181 57.0573L59.716 57.0596L59.7136 57.0619C57.8956 58.9538 55.8653 60.5008 53.5163 61.7001C52.9225 62.0032 52.316 62.2811 51.6994 62.5355C50.5675 63.0027 49.4158 63.3674 48.2193 63.6357C47.3908 63.8217 46.5535 63.9604 45.7119 64.074C45.2244 64.1397 44.7245 64.1768 44.2334 64.204C43.7344 64.2317 43.224 64.2501 42.7244 64.2372C41.6902 64.2104 40.6586 64.1491 39.633 64.0107C38.293 63.8302 37.0066 63.5192 35.7246 63.0955C33.6624 62.414 31.691 61.4758 29.9055 60.2477C29.3834 59.8885 28.8849 59.5074 28.3956 59.1062C28.25 58.9868 28.1059 58.865 27.9584 58.7479C27.9137 58.7123 27.8072 58.6241 27.7554 58.6028L27.7228 58.5897L25.6872 56.5816L25.6739 56.548C25.6162 56.4043 25.4217 56.1926 25.3163 56.0758C25.1938 55.9401 25.063 55.8054 24.9484 55.663C24.7013 55.3555 24.4642 55.0407 24.2312 54.7227C23.4631 53.6741 22.7959 52.5266 22.2305 51.36C21.5971 50.0533 21.0519 48.6442 20.7186 47.232C20.3311 45.591 20.0541 43.9549 20.0073 42.2675C19.9661 40.7867 20.1029 39.3273 20.3234 37.8641C20.5259 36.5197 20.9027 35.1727 21.3727 33.8961C21.8218 32.6767 22.3753 31.4699 23.0377 30.3483C23.4145 29.7103 23.8168 29.0883 24.2493 28.4854C24.3401 28.3586 24.4426 28.2342 24.5405 28.1125C24.6888 27.9279 24.8383 27.7445 24.9875 27.5606C25.1512 27.3594 25.3149 27.1579 25.4765 26.9547C25.5345 26.8817 25.5922 26.8087 25.6485 26.7342C25.6724 26.7042 25.705 26.6639 25.7245 26.6306Z" fill="black"/>
<path fill-rule="evenodd" clip-rule="evenodd" d="M76.22 23.8451L76.2244 23.8448C76.2053 23.8454 76.1796 23.8457 76.2071 23.8454L76.22 23.8451Z" fill="#1B234C"/>
</svg>
